<svg width="24" height="24" viewBox="0 0 24 24" fill="none" xmlns="http://www.w3.org/2000/svg">
<g id="fi-rr-room-service">
<path id="Vector" d="M23 19.0003V17.0003C22.9964 14.2576 21.9692 11.615 20.1196 9.58988C18.27 7.56474 15.7311 6.30286 13 6.05126V4.72326C13.3813 4.50313 13.6793 4.16333 13.8478 3.75658C14.0162 3.34982 14.0458 2.89884 13.9319 2.47357C13.8179 2.04831 13.5668 1.67252 13.2175 1.4045C12.8682 1.13649 12.4403 0.991211 12 0.991211C11.5597 0.991211 11.1318 1.13649 10.7825 1.4045C10.4332 1.67252 10.1821 2.04831 10.0681 2.47357C9.9542 2.89884 9.98376 3.34982 10.1522 3.75658C10.3207 4.16333 10.6187 4.50313 11 4.72326V6.05126C8.26889 6.30286 5.73002 7.56474 3.88041 9.58988C2.0308 11.615 1.00363 14.2576 1 17.0003V19.0003C0.734784 19.0003 0.48043 19.1056 0.292893 19.2932C0.105357 19.4807 0 19.735 0 20.0003C0 20.2655 0.105357 20.5198 0.292893 20.7074C0.48043 20.8949 0.734784 21.0003 1 21.0003H23C23.2652 21.0003 23.5196 20.8949 23.7071 20.7074C23.8946 20.5198 24 20.2655 24 20.0003C24 19.735 23.8946 19.4807 23.7071 19.2932C23.5196 19.1056 23.2652 19.0003 23 19.0003ZM3 17.0003C3.473 5.06626 20.531 5.07526 21 17.0003V19.0003H3V17.0003Z" fill="#151A2D"/>
</g>
</svg>
